# xmcd
#
# Track frame offsets: 
#        150
#        35558
#        59051
#        88227
#        105964
#        127457
#        154593
#        214280
#        233687
#        239036
#
# Disc length: 3523 seconds
#
# Revision: 1
# Processed by: cddbd v1.5.2PL0 Copyright (c) Steve Scherf et al.
# Submitted via: ExactAudioCopy v0.99pb3
#
DISCID=930dc10a
DTITLE=Various Artist - Divas of Gospel II (2001)
DYEAR=2001
DGENRE=Gospel
TTITLE0=Vickie Winans/ No Cross, No Crown
TTITLE1=Kim McFarland - Amazing
TTITLE2=Tramaine Hawkins - Holy One
TTITLE3=Lisa Page - No Other God
TTITLE4=Dionne Warwick - Humbly I Pray
TTITLE5=Kim McFarland - Jesus That's My King
TTITLE6=Jennifer Holliday - Hallelujah, Amen!
TTITLE7=Lisa Page - Jesus Will See You Through
TTITLE8=Tramaine Hawkins - Trust and Obey
TTITLE9=Vickie Winans - Long As I Got King Jesus
EXTD=
EXTT0=
EXTT1=
EXTT2=
EXTT3=
EXTT4=
EXTT5=
EXTT6=
EXTT7=
EXTT8=
EXTT9=
PLAYORDER=
